<?xml version="1.0" encoding="UTF-8" standalone="no"?>
<!DOCTYPE svg PUBLIC "-//W3C//DTD SVG 1.1//EN"
 "http://www.w3.org/Graphics/SVG/1.1/DTD/svg11.dtd">
<!-- Generated by graphviz version 7.1.0 (20230122.1345)
 -->
<!-- Title: snakemake_dag Pages: 1 -->
<svg width="1284pt" height="980pt"
 viewBox="0.00 0.00 1284.00 980.00" xmlns="http://www.w3.org/2000/svg" xmlns:xlink="http://www.w3.org/1999/xlink">
<g id="graph0" class="graph" transform="scale(1 1) rotate(0) translate(4 976)">
<title>snakemake_dag</title>
<polygon fill="white" stroke="none" points="-4,4 -4,-976 1280,-976 1280,4 -4,4"/>
<!-- 0 -->
<g id="node1" class="node">
<title>0</title>
<path fill="none" stroke="#56b9d8" stroke-width="2" d="M284,-36C284,-36 254,-36 254,-36 248,-36 242,-30 242,-24 242,-24 242,-12 242,-12 242,-6 248,0 254,0 254,0 284,0 284,0 290,0 296,-6 296,-12 296,-12 296,-24 296,-24 296,-30 290,-36 284,-36"/>
<text text-anchor="middle" x="269" y="-15.5" font-family="sans" font-size="10.00">all</text>
</g>
<!-- 1 -->
<g id="node2" class="node">
<title>1</title>
<path fill="none" stroke="#afd856" stroke-width="2" d="M266.5,-828C266.5,-828 201.5,-828 201.5,-828 195.5,-828 189.5,-822 189.5,-816 189.5,-816 189.5,-804 189.5,-804 189.5,-798 195.5,-792 201.5,-792 201.5,-792 266.5,-792 266.5,-792 272.5,-792 278.5,-798 278.5,-804 278.5,-804 278.5,-816 278.5,-816 278.5,-822 272.5,-828 266.5,-828"/>
<text text-anchor="middle" x="234" y="-807.5" font-family="sans" font-size="10.00">variant_counts</text>
</g>
<!-- 1&#45;&gt;0 -->
<g id="edge1" class="edge">
<title>1&#45;&gt;0</title>
<path fill="none" stroke="grey" stroke-width="2" d="M188.81,-800.27C158.77,-792.65 119.87,-779.07 92,-756 56.36,-726.5 38,-713.27 38,-667 38,-667 38,-667 38,-593 38,-496.4 0,-475.6 0,-379 0,-379 0,-379 0,-161 0,-58.87 153.51,-30.01 228.6,-22"/>
<polygon fill="grey" stroke="grey" stroke-width="2" points="228.6,-25.52 238.21,-21.07 227.92,-18.55 228.6,-25.52"/>
</g>
<!-- 5 -->
<g id="node6" class="node">
<title>5</title>
<path fill="none" stroke="#56d87b" stroke-width="2" d="M382,-756C382,-756 274,-756 274,-756 268,-756 262,-750 262,-744 262,-744 262,-732 262,-732 262,-726 268,-720 274,-720 274,-720 382,-720 382,-720 388,-720 394,-726 394,-732 394,-732 394,-744 394,-744 394,-750 388,-756 382,-756"/>
<text text-anchor="middle" x="328" y="-735.5" font-family="sans" font-size="10.00">analyze_variant_counts</text>
</g>
<!-- 1&#45;&gt;5 -->
<g id="edge10" class="edge">
<title>1&#45;&gt;5</title>
<path fill="none" stroke="grey" stroke-width="2" d="M257.72,-791.34C268.66,-783.19 281.84,-773.37 293.83,-764.45"/>
<polygon fill="grey" stroke="grey" stroke-width="2" points="295.6,-767.49 301.53,-758.71 291.42,-761.88 295.6,-767.49"/>
</g>
<!-- 11 -->
<g id="node12" class="node">
<title>11</title>
<path fill="none" stroke="#56d892" stroke-width="2" d="M445,-612C445,-612 391,-612 391,-612 385,-612 379,-606 379,-600 379,-600 379,-588 379,-588 379,-582 385,-576 391,-576 391,-576 445,-576 445,-576 451,-576 457,-582 457,-588 457,-588 457,-600 457,-600 457,-606 451,-612 445,-612"/>
<text text-anchor="middle" x="418" y="-591.5" font-family="sans" font-size="10.00">prob_escape</text>
</g>
<!-- 1&#45;&gt;11 -->
<g id="edge21" class="edge">
<title>1&#45;&gt;11</title>
<path fill="none" stroke="grey" stroke-width="2" d="M233.47,-791.09C233.8,-771.66 237.1,-740.66 253,-720 274.58,-691.96 295.08,-704.37 324,-684 349.66,-665.93 375.3,-641.08 393.3,-622.24"/>
<polygon fill="grey" stroke="grey" stroke-width="2" points="395.61,-624.89 399.91,-615.2 390.51,-620.1 395.61,-624.89"/>
</g>
<!-- 12 -->
<g id="node13" class="node">
<title>12</title>
<path fill="none" stroke="#78d856" stroke-width="2" d="M404,-108C404,-108 350,-108 350,-108 344,-108 338,-102 338,-96 338,-96 338,-84 338,-84 338,-78 344,-72 350,-72 350,-72 404,-72 404,-72 410,-72 416,-78 416,-84 416,-84 416,-96 416,-96 416,-102 410,-108 404,-108"/>
<text text-anchor="middle" x="377" y="-87.5" font-family="sans" font-size="10.00">sphinx_build</text>
</g>
<!-- 1&#45;&gt;12 -->
<g id="edge24" class="edge">
<title>1&#45;&gt;12</title>
<path fill="none" stroke="grey" stroke-width="2" d="M188.72,-791.19C142.03,-769.5 76,-728.04 76,-667 76,-667 76,-667 76,-593 76,-496.4 114,-475.6 114,-379 114,-379 114,-379 114,-233 114,-186.73 130.8,-171.52 168,-144 213.74,-110.16 278.84,-97.82 324.19,-93.38"/>
<polygon fill="grey" stroke="grey" stroke-width="2" points="324.32,-96.88 333.99,-92.54 323.73,-89.91 324.32,-96.88"/>
</g>
<!-- 20 -->
<g id="node21" class="node">
<title>20</title>
<path fill="none" stroke="#56d0d8" stroke-width="2" d="M659.5,-180C659.5,-180 612.5,-180 612.5,-180 606.5,-180 600.5,-174 600.5,-168 600.5,-168 600.5,-156 600.5,-156 600.5,-150 606.5,-144 612.5,-144 612.5,-144 659.5,-144 659.5,-144 665.5,-144 671.5,-150 671.5,-156 671.5,-156 671.5,-168 671.5,-168 671.5,-174 665.5,-180 659.5,-180"/>
<text text-anchor="middle" x="636" y="-159.5" font-family="sans" font-size="10.00">docs_index</text>
</g>
<!-- 1&#45;&gt;20 -->
<g id="edge51" class="edge">
<title>1&#45;&gt;20</title>
<path fill="none" stroke="grey" stroke-width="2" d="M209.45,-791.05C174.23,-762.89 115.41,-705.59 133,-648 149.9,-592.65 376.61,-249.22 424,-216 472.63,-181.9 541.06,-169.69 586.89,-165.34"/>
<polygon fill="grey" stroke="grey" stroke-width="2" points="587.07,-168.84 596.74,-164.52 586.49,-161.87 587.07,-168.84"/>
</g>
<!-- 2 -->
<g id="node3" class="node">
<title>2</title>
<path fill="none" stroke="#d8a456" stroke-width="2" d="M343.5,-900C343.5,-900 274.5,-900 274.5,-900 268.5,-900 262.5,-894 262.5,-888 262.5,-888 262.5,-876 262.5,-876 262.5,-870 268.5,-864 274.5,-864 274.5,-864 343.5,-864 343.5,-864 349.5,-864 355.5,-870 355.5,-876 355.5,-876 355.5,-888 355.5,-888 355.5,-894 349.5,-900 343.5,-900"/>
<text text-anchor="middle" x="309" y="-879.5" font-family="sans" font-size="10.00">count_barcodes</text>
</g>
<!-- 2&#45;&gt;1 -->
<g id="edge5" class="edge">
<title>2&#45;&gt;1</title>
<path fill="none" stroke="grey" stroke-width="2" d="M290.07,-863.34C281.7,-855.52 271.67,-846.16 262.43,-837.53"/>
<polygon fill="grey" stroke="grey" stroke-width="2" points="265.09,-835.23 255.39,-830.97 260.32,-840.35 265.09,-835.23"/>
</g>
<!-- 2&#45;&gt;5 -->
<g id="edge9" class="edge">
<title>2&#45;&gt;5</title>
<path fill="none" stroke="grey" stroke-width="2" d="M311.41,-863.02C314.55,-839.54 320.09,-798.11 323.9,-769.64"/>
<polygon fill="grey" stroke="grey" stroke-width="2" points="327.35,-770.21 325.21,-759.84 320.42,-769.29 327.35,-770.21"/>
</g>
<!-- 3 -->
<g id="node4" class="node">
<title>3</title>
<path fill="none" stroke="#97d856" stroke-width="2" d="M432,-972C432,-972 336,-972 336,-972 330,-972 324,-966 324,-960 324,-960 324,-948 324,-948 324,-942 330,-936 336,-936 336,-936 432,-936 432,-936 438,-936 444,-942 444,-948 444,-948 444,-960 444,-960 444,-966 438,-972 432,-972"/>
<text text-anchor="middle" x="384" y="-951.5" font-family="sans" font-size="10.00">get_prebuilt_variants</text>
</g>
<!-- 3&#45;&gt;1 -->
<g id="edge6" class="edge">
<title>3&#45;&gt;1</title>
<path fill="none" stroke="grey" stroke-width="2" d="M323.05,-941.53C297.95,-933.82 270.67,-921.05 253,-900 239.5,-883.91 234.89,-860.54 233.59,-841.78"/>
<polygon fill="grey" stroke="grey" stroke-width="2" points="237.09,-841.72 233.25,-831.84 230.09,-841.96 237.09,-841.72"/>
</g>
<!-- 3&#45;&gt;2 -->
<g id="edge7" class="edge">
<title>3&#45;&gt;2</title>
<path fill="none" stroke="grey" stroke-width="2" d="M365.07,-935.34C356.7,-927.52 346.67,-918.16 337.43,-909.53"/>
<polygon fill="grey" stroke="grey" stroke-width="2" points="340.09,-907.23 330.39,-902.97 335.32,-912.35 340.09,-907.23"/>
</g>
<!-- 3&#45;&gt;5 -->
<g id="edge11" class="edge">
<title>3&#45;&gt;5</title>
<path fill="none" stroke="grey" stroke-width="2" d="M380.62,-935.18C377.1,-917.14 371.23,-888.5 365,-864 356.68,-831.28 345.49,-794.24 337.6,-769.03"/>
<polygon fill="grey" stroke="grey" stroke-width="2" points="340.96,-768.05 334.62,-759.57 334.29,-770.16 340.96,-768.05"/>
</g>
<!-- 7 -->
<g id="node8" class="node">
<title>7</title>
<path fill="none" stroke="#56d863" stroke-width="2" d="M838.5,-900C838.5,-900 755.5,-900 755.5,-900 749.5,-900 743.5,-894 743.5,-888 743.5,-888 743.5,-876 743.5,-876 743.5,-870 749.5,-864 755.5,-864 755.5,-864 838.5,-864 838.5,-864 844.5,-864 850.5,-870 850.5,-876 850.5,-876 850.5,-888 850.5,-888 850.5,-894 844.5,-900 838.5,-900"/>
<text text-anchor="middle" x="797" y="-879.5" font-family="sans" font-size="10.00">translate_geneseq</text>
</g>
<!-- 3&#45;&gt;7 -->
<g id="edge14" class="edge">
<title>3&#45;&gt;7</title>
<path fill="none" stroke="grey" stroke-width="2" d="M444.94,-942.67C521.14,-929.76 651.14,-907.72 730.05,-894.35"/>
<polygon fill="grey" stroke="grey" stroke-width="2" points="730.47,-897.83 739.75,-892.7 729.3,-890.92 730.47,-897.83"/>
</g>
<!-- 3&#45;&gt;11 -->
<g id="edge22" class="edge">
<title>3&#45;&gt;11</title>
<path fill="none" stroke="grey" stroke-width="2" d="M392.06,-935.03C403.21,-908.48 422,-856.94 422,-811 422,-811 422,-811 422,-737 422,-698.64 420.52,-654.47 419.36,-625.71"/>
<polygon fill="grey" stroke="grey" stroke-width="2" points="422.87,-625.8 418.96,-615.95 415.88,-626.09 422.87,-625.8"/>
</g>
<!-- 3&#45;&gt;12 -->
<g id="edge25" class="edge">
<title>3&#45;&gt;12</title>
<path fill="none" stroke="grey" stroke-width="2" d="M323.15,-943.46C214.88,-924.75 0,-879.06 0,-811 0,-811 0,-811 0,-593 0,-496.4 38,-475.6 38,-379 38,-379 38,-379 38,-233 38,-110.35 229.1,-91.83 324.34,-90.21"/>
<polygon fill="grey" stroke="grey" stroke-width="2" points="324.12,-93.71 334.09,-90.12 324.05,-86.71 324.12,-93.71"/>
</g>
<!-- 3&#45;&gt;20 -->
<g id="edge52" class="edge">
<title>3&#45;&gt;20</title>
<path fill="none" stroke="grey" stroke-width="2" d="M414.76,-935.05C489.4,-888.94 674,-758.37 674,-595 674,-595 674,-595 674,-305 674,-265.16 659.87,-221.11 648.85,-192.8"/>
<polygon fill="grey" stroke="grey" stroke-width="2" points="652.19,-191.73 645.19,-183.77 645.7,-194.36 652.19,-191.73"/>
</g>
<!-- 4 -->
<g id="node5" class="node">
<title>4</title>
<path fill="none" stroke="#d86e56" stroke-width="2" d="M303.5,-684C303.5,-684 154.5,-684 154.5,-684 148.5,-684 142.5,-678 142.5,-672 142.5,-672 142.5,-660 142.5,-660 142.5,-654 148.5,-648 154.5,-648 154.5,-648 303.5,-648 303.5,-648 309.5,-648 315.5,-654 315.5,-660 315.5,-660 315.5,-672 315.5,-672 315.5,-678 309.5,-684 303.5,-684"/>
<text text-anchor="middle" x="229" y="-663.5" font-family="sans" font-size="10.00">check_adequate_variant_counts</text>
</g>
<!-- 4&#45;&gt;0 -->
<g id="edge3" class="edge">
<title>4&#45;&gt;0</title>
<path fill="none" stroke="grey" stroke-width="2" d="M183.05,-647.12C166.71,-638.7 149.53,-627.12 138,-612 73,-526.81 76,-486.16 76,-379 76,-379 76,-379 76,-161 76,-85.74 172.38,-45.94 228.92,-29.06"/>
<polygon fill="grey" stroke="grey" stroke-width="2" points="229.77,-32.46 238.44,-26.36 227.86,-25.72 229.77,-32.46"/>
</g>
<!-- 4&#45;&gt;11 -->
<g id="edge23" class="edge">
<title>4&#45;&gt;11</title>
<path fill="none" stroke="grey" stroke-width="2" d="M277.18,-647.15C304.43,-637.06 338.5,-624.44 366.3,-614.15"/>
<polygon fill="grey" stroke="grey" stroke-width="2" points="367.19,-617.55 375.36,-610.79 364.76,-610.99 367.19,-617.55"/>
</g>
<!-- 5&#45;&gt;4 -->
<g id="edge8" class="edge">
<title>5&#45;&gt;4</title>
<path fill="none" stroke="grey" stroke-width="2" d="M302.76,-719.15C291.24,-711.01 277.39,-701.22 264.82,-692.33"/>
<polygon fill="grey" stroke="grey" stroke-width="2" points="266.85,-689.48 256.66,-686.56 262.81,-695.19 266.85,-689.48"/>
</g>
<!-- 5&#45;&gt;12 -->
<g id="edge33" class="edge">
<title>5&#45;&gt;12</title>
<path fill="none" stroke="grey" stroke-width="2" d="M331.53,-719.09C334.3,-700.21 335.95,-670.2 324,-648 279.22,-564.78 152,-617.5 152,-523 152,-523 152,-523 152,-233 152,-151.91 257.8,-115.26 324.3,-100.23"/>
<polygon fill="grey" stroke="grey" stroke-width="2" points="325.03,-103.66 334.07,-98.14 323.56,-96.81 325.03,-103.66"/>
</g>
<!-- 16 -->
<g id="node17" class="node">
<title>16</title>
<path fill="none" stroke="#56a2d8" stroke-width="2" d="M557.5,-324C557.5,-324 502.5,-324 502.5,-324 496.5,-324 490.5,-318 490.5,-312 490.5,-312 490.5,-300 490.5,-300 490.5,-294 496.5,-288 502.5,-288 502.5,-288 557.5,-288 557.5,-288 563.5,-288 569.5,-294 569.5,-300 569.5,-300 569.5,-312 569.5,-312 569.5,-318 563.5,-324 557.5,-324"/>
<text text-anchor="middle" x="530" y="-303.5" font-family="sans" font-size="10.00">make_nblink</text>
</g>
<!-- 5&#45;&gt;16 -->
<g id="edge45" class="edge">
<title>5&#45;&gt;16</title>
<path fill="none" stroke="grey" stroke-width="2" d="M379.47,-719.02C429.5,-697.86 498,-657.49 498,-595 498,-595 498,-595 498,-449 498,-409.51 509.92,-365.33 519.21,-336.89"/>
<polygon fill="grey" stroke="grey" stroke-width="2" points="522.49,-338.11 522.4,-327.51 515.87,-335.85 522.49,-338.11"/>
</g>
<!-- 5&#45;&gt;20 -->
<g id="edge59" class="edge">
<title>5&#45;&gt;20</title>
<path fill="none" stroke="grey" stroke-width="2" d="M394.83,-734.79C485.42,-727.83 636,-700.4 636,-595 636,-595 636,-595 636,-305 636,-266.65 636,-222.48 636,-193.72"/>
<polygon fill="grey" stroke="grey" stroke-width="2" points="639.5,-193.96 636,-183.96 632.5,-193.96 639.5,-193.96"/>
</g>
<!-- 6 -->
<g id="node7" class="node">
<title>6</title>
<path fill="none" stroke="#d8bc56" stroke-width="2" d="M800.5,-828C800.5,-828 705.5,-828 705.5,-828 699.5,-828 693.5,-822 693.5,-816 693.5,-816 693.5,-804 693.5,-804 693.5,-798 699.5,-792 705.5,-792 705.5,-792 800.5,-792 800.5,-792 806.5,-792 812.5,-798 812.5,-804 812.5,-804 812.5,-816 812.5,-816 812.5,-822 806.5,-828 800.5,-828"/>
<text text-anchor="middle" x="753" y="-807.5" font-family="sans" font-size="10.00">site_numbering_map</text>
</g>
<!-- 6&#45;&gt;5 -->
<g id="edge12" class="edge">
<title>6&#45;&gt;5</title>
<path fill="none" stroke="grey" stroke-width="2" d="M692.56,-799.05C617.76,-786.73 490.18,-765.71 407.5,-752.09"/>
<polygon fill="grey" stroke="grey" stroke-width="2" points="408.31,-748.68 397.87,-750.51 407.17,-755.59 408.31,-748.68"/>
</g>
<!-- 8 -->
<g id="node9" class="node">
<title>8</title>
<path fill="none" stroke="#c6d856" stroke-width="2" d="M979,-468C979,-468 881,-468 881,-468 875,-468 869,-462 869,-456 869,-456 869,-444 869,-444 869,-438 875,-432 881,-432 881,-432 979,-432 979,-432 985,-432 991,-438 991,-444 991,-444 991,-456 991,-456 991,-462 985,-468 979,-468"/>
<text text-anchor="middle" x="930" y="-447.5" font-family="sans" font-size="10.00">avg_antibody_escape</text>
</g>
<!-- 6&#45;&gt;8 -->
<g id="edge15" class="edge">
<title>6&#45;&gt;8</title>
<path fill="none" stroke="grey" stroke-width="2" d="M763.05,-791C786.85,-748.14 848,-636.36 893,-540 902.07,-520.57 911.33,-498.3 918.32,-480.89"/>
<polygon fill="grey" stroke="grey" stroke-width="2" points="921.52,-482.33 921.95,-471.74 915.01,-479.74 921.52,-482.33"/>
</g>
<!-- 10 -->
<g id="node11" class="node">
<title>10</title>
<path fill="none" stroke="#d8d356" stroke-width="2" d="M596,-540C596,-540 538,-540 538,-540 532,-540 526,-534 526,-528 526,-528 526,-516 526,-516 526,-510 532,-504 538,-504 538,-504 596,-504 596,-504 602,-504 608,-510 608,-516 608,-516 608,-528 608,-528 608,-534 602,-540 596,-540"/>
<text text-anchor="middle" x="567" y="-519.5" font-family="sans" font-size="10.00">fit_polyclonal</text>
</g>
<!-- 6&#45;&gt;10 -->
<g id="edge18" class="edge">
<title>6&#45;&gt;10</title>
<path fill="none" stroke="grey" stroke-width="2" d="M741.36,-791.11C710.05,-742.96 623.78,-610.3 585.6,-551.59"/>
<polygon fill="grey" stroke="grey" stroke-width="2" points="588.67,-549.9 580.28,-543.42 582.8,-553.71 588.67,-549.9"/>
</g>
<!-- 6&#45;&gt;11 -->
<g id="edge20" class="edge">
<title>6&#45;&gt;11</title>
<path fill="none" stroke="grey" stroke-width="2" d="M725.01,-791.12C665.28,-752.96 525.19,-663.48 456.86,-619.82"/>
<polygon fill="grey" stroke="grey" stroke-width="2" points="459,-617.04 448.69,-614.61 455.24,-622.94 459,-617.04"/>
</g>
<!-- 6&#45;&gt;12 -->
<g id="edge32" class="edge">
<title>6&#45;&gt;12</title>
<path fill="none" stroke="grey" stroke-width="2" d="M813.44,-804.09C943.46,-791.87 1238,-754.52 1238,-667 1238,-667 1238,-667 1238,-233 1238,-166.96 1180.89,-167.06 1119,-144 992.41,-96.82 577.14,-91.36 429.6,-90.94"/>
<polygon fill="grey" stroke="grey" stroke-width="2" points="429.61,-87.44 419.6,-90.92 429.6,-94.44 429.61,-87.44"/>
</g>
<!-- 6&#45;&gt;20 -->
<g id="edge58" class="edge">
<title>6&#45;&gt;20</title>
<path fill="none" stroke="grey" stroke-width="2" d="M751.74,-791.18C745.09,-698.04 713.28,-269.35 688,-216 683.41,-206.31 676.31,-197.32 668.82,-189.6"/>
<polygon fill="grey" stroke="grey" stroke-width="2" points="671.48,-187.3 661.82,-182.94 666.65,-192.37 671.48,-187.3"/>
</g>
<!-- 7&#45;&gt;6 -->
<g id="edge13" class="edge">
<title>7&#45;&gt;6</title>
<path fill="none" stroke="grey" stroke-width="2" d="M785.9,-863.34C781.4,-856.18 776.09,-847.73 771.06,-839.73"/>
<polygon fill="grey" stroke="grey" stroke-width="2" points="774.15,-838.07 765.86,-831.46 768.22,-841.79 774.15,-838.07"/>
</g>
<!-- 7&#45;&gt;12 -->
<g id="edge30" class="edge">
<title>7&#45;&gt;12</title>
<path fill="none" stroke="grey" stroke-width="2" d="M851.48,-876.45C977.03,-864.46 1276,-826.71 1276,-739 1276,-739 1276,-739 1276,-233 1276,-174.82 1233.43,-167.02 1180,-144 1111.4,-114.45 597.14,-97.29 429.6,-92.44"/>
<polygon fill="grey" stroke="grey" stroke-width="2" points="429.88,-88.94 419.79,-92.15 429.68,-95.94 429.88,-88.94"/>
</g>
<!-- 7&#45;&gt;20 -->
<g id="edge56" class="edge">
<title>7&#45;&gt;20</title>
<path fill="none" stroke="grey" stroke-width="2" d="M807.89,-863.08C813.29,-853.13 819.24,-840.31 822,-828 825.5,-812.39 823.59,-807.92 822,-792 815.52,-727.04 740.72,-271.29 706,-216 699.32,-205.37 689.69,-196.09 679.7,-188.39"/>
<polygon fill="grey" stroke="grey" stroke-width="2" points="681.91,-185.67 671.74,-182.71 677.85,-191.37 681.91,-185.67"/>
</g>
<!-- 8&#45;&gt;0 -->
<g id="edge2" class="edge">
<title>8&#45;&gt;0</title>
<path fill="none" stroke="grey" stroke-width="2" d="M991.89,-438.2C1052.7,-423.85 1141.9,-391.92 1181,-324 1215.29,-264.43 1179.36,-190.38 1119,-144 989.55,-44.54 460.02,-23.78 309.24,-19.85"/>
<polygon fill="grey" stroke="grey" stroke-width="2" points="309.75,-16.36 299.67,-19.61 309.58,-23.36 309.75,-16.36"/>
</g>
<!-- 8&#45;&gt;12 -->
<g id="edge37" class="edge">
<title>8&#45;&gt;12</title>
<path fill="none" stroke="grey" stroke-width="2" d="M942.98,-431.05C950.22,-420.89 959.3,-407.86 967,-396 997.5,-349 999.16,-333.39 1032,-288 1044.38,-270.89 1055.65,-271.79 1063,-252 1068.57,-237 1071.47,-229.58 1063,-216 995.84,-108.32 578.51,-93.17 429.67,-91.22"/>
<polygon fill="grey" stroke="grey" stroke-width="2" points="430.01,-87.72 419.97,-91.11 429.93,-94.72 430.01,-87.72"/>
</g>
<!-- 14 -->
<g id="node15" class="node">
<title>14</title>
<path fill="none" stroke="#61d856" stroke-width="2" d="M896,-396C896,-396 828,-396 828,-396 822,-396 816,-390 816,-384 816,-384 816,-372 816,-372 816,-366 822,-360 828,-360 828,-360 896,-360 896,-360 902,-360 908,-366 908,-372 908,-372 908,-384 908,-384 908,-390 902,-396 896,-396"/>
<text text-anchor="middle" x="862" y="-375.5" font-family="sans" font-size="10.00">compare_IC50s</text>
</g>
<!-- 8&#45;&gt;14 -->
<g id="edge40" class="edge">
<title>8&#45;&gt;14</title>
<path fill="none" stroke="grey" stroke-width="2" d="M912.84,-431.34C905.41,-423.69 896.54,-414.56 888.31,-406.08"/>
<polygon fill="grey" stroke="grey" stroke-width="2" points="890.98,-403.81 881.5,-399.07 885.96,-408.68 890.98,-403.81"/>
</g>
<!-- 8&#45;&gt;16 -->
<g id="edge47" class="edge">
<title>8&#45;&gt;16</title>
<path fill="none" stroke="grey" stroke-width="2" d="M879.34,-431.02C803.17,-403.98 659.86,-353.1 582.58,-325.66"/>
<polygon fill="grey" stroke="grey" stroke-width="2" points="583.76,-322.37 573.16,-322.32 581.41,-328.97 583.76,-322.37"/>
</g>
<!-- 18 -->
<g id="node19" class="node">
<title>18</title>
<path fill="none" stroke="#d85656" stroke-width="2" d="M1041.5,-252C1041.5,-252 904.5,-252 904.5,-252 898.5,-252 892.5,-246 892.5,-240 892.5,-240 892.5,-228 892.5,-228 892.5,-222 898.5,-216 904.5,-216 904.5,-216 1041.5,-216 1041.5,-216 1047.5,-216 1053.5,-222 1053.5,-228 1053.5,-228 1053.5,-240 1053.5,-240 1053.5,-246 1047.5,-252 1041.5,-252"/>
<text text-anchor="middle" x="973" y="-231.5" font-family="sans" font-size="10.00">format_antibody_escape_plot</text>
</g>
<!-- 8&#45;&gt;18 -->
<g id="edge48" class="edge">
<title>8&#45;&gt;18</title>
<path fill="none" stroke="grey" stroke-width="2" d="M937.85,-431.16C942.02,-421.03 946.92,-408 950,-396 961.49,-351.25 967.69,-297.93 970.67,-265.28"/>
<polygon fill="grey" stroke="grey" stroke-width="2" points="974.12,-265.92 971.49,-255.65 967.15,-265.32 974.12,-265.92"/>
</g>
<!-- 19 -->
<g id="node20" class="node">
<title>19</title>
<path fill="none" stroke="#56d8c9" stroke-width="2" d="M1159.5,-324C1159.5,-324 1052.5,-324 1052.5,-324 1046.5,-324 1040.5,-318 1040.5,-312 1040.5,-312 1040.5,-300 1040.5,-300 1040.5,-294 1046.5,-288 1052.5,-288 1052.5,-288 1159.5,-288 1159.5,-288 1165.5,-288 1171.5,-294 1171.5,-300 1171.5,-300 1171.5,-312 1171.5,-312 1171.5,-318 1165.5,-324 1159.5,-324"/>
<text text-anchor="middle" x="1106" y="-303.5" font-family="sans" font-size="10.00">compare_escape_maps</text>
</g>
<!-- 8&#45;&gt;19 -->
<g id="edge49" class="edge">
<title>8&#45;&gt;19</title>
<path fill="none" stroke="grey" stroke-width="2" d="M969.22,-431.11C987.38,-421.91 1008.71,-409.74 1026,-396 1048.54,-378.09 1070.12,-353.49 1085.17,-334.69"/>
<polygon fill="grey" stroke="grey" stroke-width="2" points="1087.75,-337.07 1091.17,-327.04 1082.24,-332.75 1087.75,-337.07"/>
</g>
<!-- 8&#45;&gt;20 -->
<g id="edge63" class="edge">
<title>8&#45;&gt;20</title>
<path fill="none" stroke="grey" stroke-width="2" d="M930.26,-431.13C929.88,-412.56 927.45,-383.04 917,-360 882.22,-283.35 863.76,-263.09 794,-216 760.97,-193.71 717.76,-180.06 684.87,-172.21"/>
<polygon fill="grey" stroke="grey" stroke-width="2" points="685.85,-168.84 675.32,-170.05 684.3,-175.67 685.85,-168.84"/>
</g>
<!-- 9 -->
<g id="node10" class="node">
<title>9</title>
<path fill="none" stroke="#5673d8" stroke-width="2" d="M872,-540C872,-540 806,-540 806,-540 800,-540 794,-534 794,-528 794,-528 794,-516 794,-516 794,-510 800,-504 806,-504 806,-504 872,-504 872,-504 878,-504 884,-510 884,-516 884,-516 884,-528 884,-528 884,-534 878,-540 872,-540"/>
<text text-anchor="middle" x="839" y="-519.5" font-family="sans" font-size="10.00">get_muteffects</text>
</g>
<!-- 9&#45;&gt;8 -->
<g id="edge17" class="edge">
<title>9&#45;&gt;8</title>
<path fill="none" stroke="grey" stroke-width="2" d="M861.96,-503.34C872.44,-495.27 885.06,-485.57 896.57,-476.72"/>
<polygon fill="grey" stroke="grey" stroke-width="2" points="898.54,-479.62 904.33,-470.75 894.27,-474.07 898.54,-479.62"/>
</g>
<!-- 9&#45;&gt;14 -->
<g id="edge41" class="edge">
<title>9&#45;&gt;14</title>
<path fill="none" stroke="grey" stroke-width="2" d="M841.91,-503.02C845.71,-479.54 852.43,-438.11 857.04,-409.64"/>
<polygon fill="grey" stroke="grey" stroke-width="2" points="860.48,-410.26 858.63,-399.83 853.57,-409.14 860.48,-410.26"/>
</g>
<!-- 9&#45;&gt;19 -->
<g id="edge50" class="edge">
<title>9&#45;&gt;19</title>
<path fill="none" stroke="grey" stroke-width="2" d="M884.89,-513.3C918.98,-505.9 965.38,-492.18 1000,-468 1047.25,-435.01 1078.89,-373.55 1094.55,-336.86"/>
<polygon fill="grey" stroke="grey" stroke-width="2" points="1097.71,-338.38 1098.27,-327.8 1091.23,-335.72 1097.71,-338.38"/>
</g>
<!-- 10&#45;&gt;8 -->
<g id="edge16" class="edge">
<title>10&#45;&gt;8</title>
<path fill="none" stroke="grey" stroke-width="2" d="M609,-512.9C669.24,-501.28 781.13,-479.71 855.59,-465.35"/>
<polygon fill="grey" stroke="grey" stroke-width="2" points="855.99,-468.84 865.15,-463.51 854.66,-461.96 855.99,-468.84"/>
</g>
<!-- 10&#45;&gt;12 -->
<g id="edge35" class="edge">
<title>10&#45;&gt;12</title>
<path fill="none" stroke="grey" stroke-width="2" d="M525.03,-505.1C476.27,-485.11 395.31,-447.14 339,-396 310.35,-369.98 307.6,-358.47 290,-324 253.42,-252.35 225.44,-210.3 271,-144 283.75,-125.45 304.96,-113.07 325.08,-104.98"/>
<polygon fill="grey" stroke="grey" stroke-width="2" points="326.02,-108.36 334.2,-101.63 323.61,-101.79 326.02,-108.36"/>
</g>
<!-- 10&#45;&gt;16 -->
<g id="edge46" class="edge">
<title>10&#45;&gt;16</title>
<path fill="none" stroke="grey" stroke-width="2" d="M563.91,-503.12C557.6,-466.62 543.16,-383.13 535.32,-337.74"/>
<polygon fill="grey" stroke="grey" stroke-width="2" points="538.78,-337.22 533.62,-327.96 531.88,-338.41 538.78,-337.22"/>
</g>
<!-- 10&#45;&gt;20 -->
<g id="edge61" class="edge">
<title>10&#45;&gt;20</title>
<path fill="none" stroke="grey" stroke-width="2" d="M573.42,-503.34C582.5,-476.75 598,-424.67 598,-379 598,-379 598,-379 598,-305 598,-265.16 612.13,-221.11 623.15,-192.8"/>
<polygon fill="grey" stroke="grey" stroke-width="2" points="626.3,-194.36 626.81,-183.77 619.81,-191.73 626.3,-194.36"/>
</g>
<!-- 11&#45;&gt;10 -->
<g id="edge19" class="edge">
<title>11&#45;&gt;10</title>
<path fill="none" stroke="grey" stroke-width="2" d="M455.98,-575.15C474.56,-566.43 497.17,-555.81 517.12,-546.43"/>
<polygon fill="grey" stroke="grey" stroke-width="2" points="518.52,-549.64 526.09,-542.22 515.55,-543.31 518.52,-549.64"/>
</g>
<!-- 13 -->
<g id="node14" class="node">
<title>13</title>
<path fill="none" stroke="#d88556" stroke-width="2" d="M458,-396C458,-396 360,-396 360,-396 354,-396 348,-390 348,-384 348,-384 348,-372 348,-372 348,-366 354,-360 360,-360 360,-360 458,-360 458,-360 464,-360 470,-366 470,-372 470,-372 470,-384 470,-384 470,-390 464,-396 458,-396"/>
<text text-anchor="middle" x="409" y="-375.5" font-family="sans" font-size="10.00">analyze_prob_escape</text>
</g>
<!-- 11&#45;&gt;13 -->
<g id="edge39" class="edge">
<title>11&#45;&gt;13</title>
<path fill="none" stroke="grey" stroke-width="2" d="M417.25,-575.12C415.71,-538.62 412.2,-455.13 410.29,-409.74"/>
<polygon fill="grey" stroke="grey" stroke-width="2" points="413.8,-409.85 409.88,-400 406.81,-410.14 413.8,-409.85"/>
</g>
<!-- 12&#45;&gt;0 -->
<g id="edge4" class="edge">
<title>12&#45;&gt;0</title>
<path fill="none" stroke="grey" stroke-width="2" d="M349.47,-71.15C336.65,-62.84 321.18,-52.82 307.25,-43.79"/>
<polygon fill="grey" stroke="grey" stroke-width="2" points="309.32,-40.96 299.02,-38.46 305.51,-46.83 309.32,-40.96"/>
</g>
<!-- 13&#45;&gt;12 -->
<g id="edge31" class="edge">
<title>13&#45;&gt;12</title>
<path fill="none" stroke="grey" stroke-width="2" d="M376.44,-359.01C342.62,-338.24 291.66,-300.62 270,-252 258.83,-226.94 282.96,-145.44 284,-144 294.46,-129.42 310.26,-118.3 325.89,-110.1"/>
<polygon fill="grey" stroke="grey" stroke-width="2" points="326.96,-113.47 334.43,-105.96 323.9,-107.17 326.96,-113.47"/>
</g>
<!-- 13&#45;&gt;16 -->
<g id="edge44" class="edge">
<title>13&#45;&gt;16</title>
<path fill="none" stroke="grey" stroke-width="2" d="M439.85,-359.15C454.5,-350.68 472.23,-340.42 488.07,-331.25"/>
<polygon fill="grey" stroke="grey" stroke-width="2" points="489.69,-334.37 496.59,-326.33 486.18,-328.31 489.69,-334.37"/>
</g>
<!-- 13&#45;&gt;20 -->
<g id="edge57" class="edge">
<title>13&#45;&gt;20</title>
<path fill="none" stroke="grey" stroke-width="2" d="M422.17,-359.14C446.09,-327.55 499.35,-260.9 555,-216 567.47,-205.94 581.88,-196.03 595.06,-187.54"/>
<polygon fill="grey" stroke="grey" stroke-width="2" points="596.62,-190.69 603.21,-182.39 592.89,-184.77 596.62,-190.69"/>
</g>
<!-- 14&#45;&gt;12 -->
<g id="edge29" class="edge">
<title>14&#45;&gt;12</title>
<path fill="none" stroke="grey" stroke-width="2" d="M860.84,-359.3C859.14,-340.86 854.98,-311.45 845,-288 807,-198.75 771.44,-179.07 681,-144 596.77,-111.34 491.6,-98.71 429.63,-93.89"/>
<polygon fill="grey" stroke="grey" stroke-width="2" points="429.96,-90.41 419.73,-93.17 429.45,-97.39 429.96,-90.41"/>
</g>
<!-- 14&#45;&gt;16 -->
<g id="edge43" class="edge">
<title>14&#45;&gt;16</title>
<path fill="none" stroke="grey" stroke-width="2" d="M815.26,-363.35C810.79,-362.17 806.32,-361.03 802,-360 726.4,-341.96 637.9,-325.58 582.88,-315.95"/>
<polygon fill="grey" stroke="grey" stroke-width="2" points="583.76,-312.55 573.3,-314.29 582.56,-319.45 583.76,-312.55"/>
</g>
<!-- 14&#45;&gt;20 -->
<g id="edge55" class="edge">
<title>14&#45;&gt;20</title>
<path fill="none" stroke="grey" stroke-width="2" d="M855.53,-359.25C842.82,-326.63 811.59,-256.76 764,-216 741.24,-196.5 710.31,-183.43 684.55,-175.14"/>
<polygon fill="grey" stroke="grey" stroke-width="2" points="685.87,-171.89 675.28,-172.33 683.84,-178.58 685.87,-171.89"/>
</g>
<!-- 15 -->
<g id="node16" class="node">
<title>15</title>
<path fill="none" stroke="#56d8a9" stroke-width="2" d="M481.5,-252C481.5,-252 444.5,-252 444.5,-252 438.5,-252 432.5,-246 432.5,-240 432.5,-240 432.5,-228 432.5,-228 432.5,-222 438.5,-216 444.5,-216 444.5,-216 481.5,-216 481.5,-216 487.5,-216 493.5,-222 493.5,-228 493.5,-228 493.5,-240 493.5,-240 493.5,-246 487.5,-252 481.5,-252"/>
<text text-anchor="middle" x="463" y="-231.5" font-family="sans" font-size="10.00">subindex</text>
</g>
<!-- 15&#45;&gt;12 -->
<g id="edge36" class="edge">
<title>15&#45;&gt;12</title>
<path fill="none" stroke="grey" stroke-width="2" d="M452.11,-215.02C437.57,-191.01 411.65,-148.21 394.39,-119.72"/>
<polygon fill="grey" stroke="grey" stroke-width="2" points="397.55,-118.17 389.37,-111.43 391.56,-121.79 397.55,-118.17"/>
</g>
<!-- 15&#45;&gt;20 -->
<g id="edge62" class="edge">
<title>15&#45;&gt;20</title>
<path fill="none" stroke="grey" stroke-width="2" d="M494.33,-220.32C520.35,-209.8 557.79,-194.65 587.65,-182.56"/>
<polygon fill="grey" stroke="grey" stroke-width="2" points="588.75,-185.9 596.7,-178.9 586.12,-179.41 588.75,-185.9"/>
</g>
<!-- 16&#45;&gt;12 -->
<g id="edge34" class="edge">
<title>16&#45;&gt;12</title>
<path fill="none" stroke="grey" stroke-width="2" d="M489.75,-302.26C426.97,-297.06 310.28,-283.33 285,-252 250.02,-208.65 304.36,-150.34 343.26,-117.11"/>
<polygon fill="grey" stroke="grey" stroke-width="2" points="345.45,-119.84 350.91,-110.76 340.98,-114.45 345.45,-119.84"/>
</g>
<!-- 16&#45;&gt;15 -->
<g id="edge42" class="edge">
<title>16&#45;&gt;15</title>
<path fill="none" stroke="grey" stroke-width="2" d="M513.09,-287.34C505.77,-279.69 497.03,-270.56 488.92,-262.08"/>
<polygon fill="grey" stroke="grey" stroke-width="2" points="491.67,-259.89 482.23,-255.09 486.61,-264.73 491.67,-259.89"/>
</g>
<!-- 16&#45;&gt;20 -->
<g id="edge60" class="edge">
<title>16&#45;&gt;20</title>
<path fill="none" stroke="grey" stroke-width="2" d="M539.23,-287.16C549.18,-268.62 566.03,-239.12 584,-216 591.05,-206.93 599.49,-197.75 607.51,-189.64"/>
<polygon fill="grey" stroke="grey" stroke-width="2" points="609.78,-192.31 614.45,-182.8 604.87,-187.32 609.78,-192.31"/>
</g>
<!-- 17 -->
<g id="node18" class="node">
<title>17</title>
<path fill="none" stroke="#568ad8" stroke-width="2" d="M364,-252C364,-252 306,-252 306,-252 300,-252 294,-246 294,-240 294,-240 294,-228 294,-228 294,-222 300,-216 306,-216 306,-216 364,-216 364,-216 370,-216 376,-222 376,-228 376,-228 376,-240 376,-240 376,-246 370,-252 364,-252"/>
<text text-anchor="middle" x="335" y="-231.5" font-family="sans" font-size="10.00">make_graphs</text>
</g>
<!-- 17&#45;&gt;12 -->
<g id="edge38" class="edge">
<title>17&#45;&gt;12</title>
<path fill="none" stroke="grey" stroke-width="2" d="M340.32,-215.02C347.29,-191.44 359.63,-149.73 368.05,-121.25"/>
<polygon fill="grey" stroke="grey" stroke-width="2" points="371.39,-122.32 370.87,-111.74 364.67,-120.34 371.39,-122.32"/>
</g>
<!-- 17&#45;&gt;20 -->
<g id="edge64" class="edge">
<title>17&#45;&gt;20</title>
<path fill="none" stroke="grey" stroke-width="2" d="M376.93,-219.62C381.33,-218.35 385.75,-217.11 390,-216 457.7,-198.28 536.99,-181.98 586.87,-172.27"/>
<polygon fill="grey" stroke="grey" stroke-width="2" points="587.38,-175.74 596.53,-170.4 586.05,-168.86 587.38,-175.74"/>
</g>
<!-- 18&#45;&gt;12 -->
<g id="edge27" class="edge">
<title>18&#45;&gt;12</title>
<path fill="none" stroke="grey" stroke-width="2" d="M959.87,-215.03C943.37,-193.99 912.94,-159.98 878,-144 799.09,-107.9 541.5,-95.92 429.64,-92.36"/>
<polygon fill="grey" stroke="grey" stroke-width="2" points="429.87,-88.86 419.76,-92.06 429.65,-95.86 429.87,-88.86"/>
</g>
<!-- 18&#45;&gt;20 -->
<g id="edge54" class="edge">
<title>18&#45;&gt;20</title>
<path fill="none" stroke="grey" stroke-width="2" d="M891.85,-216.14C827.26,-202.73 738.99,-184.39 684.83,-173.14"/>
<polygon fill="grey" stroke="grey" stroke-width="2" points="685.62,-169.73 675.12,-171.13 684.2,-176.59 685.62,-169.73"/>
</g>
<!-- 19&#45;&gt;12 -->
<g id="edge26" class="edge">
<title>19&#45;&gt;12</title>
<path fill="none" stroke="grey" stroke-width="2" d="M1111.53,-287.01C1120.53,-253.68 1133.8,-182.24 1096,-144 1049.4,-96.86 587.64,-91.44 429.67,-90.98"/>
<polygon fill="grey" stroke="grey" stroke-width="2" points="429.69,-87.48 419.68,-90.96 429.67,-94.48 429.69,-87.48"/>
</g>
<!-- 19&#45;&gt;20 -->
<g id="edge53" class="edge">
<title>19&#45;&gt;20</title>
<path fill="none" stroke="grey" stroke-width="2" d="M1102.64,-287.01C1097.76,-266.27 1086.57,-232.9 1063,-216 1003.44,-173.29 784.3,-164.92 685.22,-163.33"/>
<polygon fill="grey" stroke="grey" stroke-width="2" points="685.42,-159.84 675.37,-163.2 685.32,-166.84 685.42,-159.84"/>
</g>
<!-- 20&#45;&gt;12 -->
<g id="edge28" class="edge">
<title>20&#45;&gt;12</title>
<path fill="none" stroke="grey" stroke-width="2" d="M599.71,-151.19C555.31,-139.19 479.79,-118.78 429.16,-105.1"/>
<polygon fill="grey" stroke="grey" stroke-width="2" points="430.35,-101.79 419.78,-102.56 428.53,-108.55 430.35,-101.79"/>
</g>
</g>
</svg>
